<svg width="8" height="12" viewBox="0 0 8 12" fill="none" xmlns="http://www.w3.org/2000/svg">
<path d="M5.15592 6.00254L0.666753 1.51317C0.543143 1.38985 0.475143 1.22497 0.475143 1.04917C0.475143 0.873268 0.543143 0.708487 0.666753 0.584975L1.06012 0.191804C1.18353 0.068097 1.34851 -5.39957e-07 1.52431 -5.24588e-07C1.70012 -5.09219e-07 1.8649 0.0680971 1.98841 0.191804L7.33348 5.53678C7.45748 5.66068 7.52539 5.82624 7.5249 6.00224C7.52539 6.17902 7.45758 6.34439 7.33348 6.46839L1.99339 11.8082C1.86987 11.9319 1.70509 12 1.52919 12C1.35339 12 1.18861 11.9319 1.065 11.8082L0.671728 11.415C0.415825 11.1591 0.415825 10.7425 0.671728 10.4867L5.15592 6.00254Z" fill="#8F8F8F"/>
</svg>
