<svg width="56" height="56" viewBox="0 0 56 56" fill="none" xmlns="http://www.w3.org/2000/svg">
<circle opacity="0.1" cx="28" cy="28" r="28" fill="#FFC107"/>
<g clip-path="url(#clip0_34_3439)">
<path d="M24.0379 34.3185L21.9297 30.667L21.4187 30.481V42H23.1627L27.1881 37.7379V33.1719L24.0379 34.3185Z" fill="#FFC107"/>
<path d="M34.6593 19.5878L34.0631 16.2068H30.63L28 14L25.37 16.2068H21.9369L21.3407 19.5878L18.7107 21.7946L20.4273 24.7678L19.8311 28.1489L23.0573 29.3231L24.7739 32.2963L28.0001 31.1221L31.2262 32.2963L32.9428 29.3231L36.169 28.1489L35.5728 24.7678L37.2894 21.7946L34.6593 19.5878ZM26.5031 25.9518L24.3521 23.4423L25.6036 22.3695L26.7495 23.7064L30.5275 20.8729L31.5166 22.1916L26.5031 25.9518Z" fill="#FFC107"/>
<path d="M34.0703 30.667L31.9622 34.3185L28.8365 33.1809V37.7343L32.8778 42.0001H34.606V30.472L34.0703 30.667Z" fill="#FFC107"/>
</g>
<defs>
<clipPath id="clip0_34_3439">
<rect width="28" height="28" fill="white" transform="translate(14 14)"/>
</clipPath>
</defs>
</svg>
