<svg width="56" height="56" viewBox="0 0 56 56" fill="none" xmlns="http://www.w3.org/2000/svg">
<circle opacity="0.1" cx="28" cy="28" r="28" fill="#03B0A9"/>
<g clip-path="url(#clip0_34_3382)">
<path d="M34.8359 21.6765V27.2344H36.4766V21.6765C37.2007 21.3601 37.707 20.6377 37.707 19.7969C37.707 18.6642 36.7889 17.7461 35.6562 17.7461C34.8154 17.7461 34.0931 18.2524 33.7766 18.9766H30.4062V20.6172H33.7766C33.9833 21.0901 34.363 21.4698 34.8359 21.6765Z" fill="#03B0A9"/>
<path d="M21.1641 32.6828V28.7656H19.5234V32.6828C18.7993 32.9994 18.293 33.7216 18.293 34.5625C18.293 35.6951 19.2111 36.6133 20.3438 36.6133C21.1846 36.6133 21.9069 36.107 22.2234 35.3828H25.5938V33.7422H22.2234C22.0167 33.2692 21.637 32.8896 21.1641 32.6828Z" fill="#03B0A9"/>
<path d="M29.8594 24.6641C29.8594 24.211 29.4921 23.8438 29.0391 23.8438H14.8203C14.3673 23.8438 14 24.211 14 24.6641C14 26.0232 15.1018 27.125 16.4609 27.125H27.3984C28.7576 27.125 29.8594 26.0232 29.8594 24.6641Z" fill="#03B0A9"/>
<path d="M28.7656 15.9141C28.7656 14.8586 27.907 14 26.8516 14H17.0078C15.9524 14 15.0938 14.8586 15.0938 15.9141V22.2031H28.7656V15.9141Z" fill="#03B0A9"/>
<path d="M41.1797 38.7188H26.9609C26.5079 38.7188 26.1406 39.086 26.1406 39.5391C26.1406 40.8982 27.2424 42 28.6016 42H39.5391C40.8982 42 42 40.8982 42 39.5391C42 39.086 41.6327 38.7188 41.1797 38.7188Z" fill="#03B0A9"/>
<path d="M27.2344 30.7891V37.0781H40.9062V30.7891C40.9062 29.7336 40.0476 28.875 38.9922 28.875H29.1484C28.093 28.875 27.2344 29.7336 27.2344 30.7891Z" fill="#03B0A9"/>
</g>
<defs>
<clipPath id="clip0_34_3382">
<rect width="28" height="28" fill="white" transform="translate(14 14)"/>
</clipPath>
</defs>
</svg>
