<svg width="36" height="36" viewBox="0 0 36 36" fill="none" xmlns="http://www.w3.org/2000/svg">
<path d="M23.8634 18.1845L35.9999 25.857V10.188L23.8634 18.1845Z" fill="white"/>
<path d="M0 10.188V25.857L12.1365 18.1845L0 10.188Z" fill="white"/>
<path d="M33.7501 5.625H2.25013C1.12738 5.625 0.236377 6.462 0.067627 7.53975L18.0001 19.3545L35.9326 7.53975C35.7639 6.462 34.8729 5.625 33.7501 5.625Z" fill="white"/>
<path d="M21.8025 19.5435L18.6188 21.6405C18.4298 21.7643 18.216 21.825 18 21.825C17.784 21.825 17.5703 21.7643 17.3813 21.6405L14.1975 19.5413L0.0720215 28.476C0.245271 29.5448 1.13177 30.375 2.25002 30.375H33.75C34.8683 30.375 35.7548 29.5448 35.928 28.476L21.8025 19.5435Z" fill="white"/>
</svg>
