<svg width="28" height="36" viewBox="0 0 28 36" fill="none" xmlns="http://www.w3.org/2000/svg">
<path d="M14 0C6.55566 0 0.5 6.05637 0.5 13.5C0.5 23.4595 12.9556 35.2969 13.4859 35.7964C13.6309 35.9319 13.8154 36 14 36C14.1846 36 14.3691 35.9319 14.5142 35.7964C15.0444 35.2969 27.5 23.4595 27.5 13.5C27.5 6.05637 21.4443 0 14 0ZM14 21C9.86471 21 6.49998 17.6353 6.49998 13.5C6.49998 9.36471 9.86478 5.99998 14 5.99998C18.1352 5.99998 21.5 9.36478 21.5 13.5C21.5 17.6352 18.1353 21 14 21Z" fill="white"/>
</svg>
