<svg width="188" height="58" viewBox="0 0 188 58" fill="none" xmlns="http://www.w3.org/2000/svg">
<g clip-path="url(#clip0_937_2240)">
<path d="M64.7963 39.7006L62.8289 36.2713C62.6989 36.2881 62.5688 36.2881 62.4223 36.2881H59.854V39.7006H57.6759V28.104H62.4223C65.3643 28.104 67.0386 29.5452 67.0386 32.0971C67.0386 33.9191 66.2418 35.2278 64.7799 35.8569L67.2839 39.7006H64.7963ZM59.854 34.3335H62.4223C64.0472 34.3335 64.9577 33.6205 64.9577 32.1625C64.9577 30.7381 64.0472 30.0418 62.4223 30.0418H59.854V34.3335Z" fill="#0367B4"/>
<path d="M77.5407 36.0231H71.12C71.3966 37.2814 72.3399 38.0448 73.6076 38.0448C74.5016 38.0448 75.3313 37.6975 75.9487 37.0516L77.0863 38.2612C76.2253 39.2226 74.9576 39.7846 73.4282 39.7846C70.7298 39.7846 68.9584 37.9626 68.9584 35.295C68.9584 32.5954 70.7792 30.7717 73.3804 30.7717C76.436 30.7717 77.7514 32.8085 77.5407 36.0231ZM75.6227 34.5819C75.5733 33.2733 74.7123 32.4444 73.3952 32.4444C72.144 32.4444 71.2649 33.2733 71.0706 34.5819H75.6227Z" fill="#0367B4"/>
<path d="M80.3526 30.8372L82.6295 37.5801L84.857 30.8372H86.9874L83.6716 39.7007H81.4935L78.1449 30.8539L80.3526 30.8372Z" fill="#0367B4"/>
<path d="M96.6727 35.2614C96.6727 37.9609 94.8206 39.7846 92.1041 39.7846C89.3564 39.7846 87.5043 37.9626 87.5043 35.2614C87.5043 32.577 89.358 30.7717 92.1041 30.7717C94.8206 30.7717 96.6727 32.577 96.6727 35.2614ZM89.6346 35.2933C89.6346 36.8838 90.6422 37.9777 92.1058 37.9777C93.5364 37.9777 94.544 36.8838 94.544 35.2933C94.544 33.7028 93.5364 32.6089 92.1058 32.6089C90.6422 32.6105 89.6346 33.7028 89.6346 35.2933Z" fill="#0367B4"/>
<path d="M101.109 27.4077V39.7006H98.9955V27.4077H101.109Z" fill="#0367B4"/>
<path d="M112.262 30.8372V39.7007H110.131V38.0599C109.531 39.236 108.49 39.7829 107.107 39.7829C105.156 39.7829 103.953 38.4743 103.953 36.3872V30.8372H106.081V35.758C106.081 37.0012 106.781 37.7461 107.952 37.7461C109.317 37.7294 110.13 36.6355 110.13 35.2111V30.8372H112.262Z" fill="#0367B4"/>
<path d="M120.388 39.1538C119.721 39.5682 118.974 39.7997 118.21 39.7997C116.796 39.7997 115.658 38.9709 115.658 37.1489V32.775H114.438L114.422 31.2012H115.657V28.7651H117.754V31.2012H120.242V32.775H117.754V36.768C117.754 37.6136 118.095 37.8938 118.664 37.8938C119.022 37.8938 119.428 37.7613 119.899 37.5297L120.388 39.1538Z" fill="#0367B4"/>
<path d="M124.647 28.3037C124.647 29 124.176 29.4966 123.51 29.4966C122.843 29.4966 122.372 29 122.372 28.3037C122.372 27.6075 122.843 27.1108 123.51 27.1108C124.176 27.1092 124.647 27.6075 124.647 28.3037ZM124.567 30.8371V39.7007H122.453V30.8371H124.567Z" fill="#0367B4"/>
<path d="M135.961 35.2614C135.961 37.9609 134.107 39.7846 131.392 39.7846C128.644 39.7846 126.791 37.9626 126.791 35.2614C126.791 32.577 128.644 30.7717 131.392 30.7717C134.109 30.7717 135.961 32.577 135.961 35.2614ZM128.923 35.2933C128.923 36.8838 129.93 37.9777 131.394 37.9777C132.824 37.9777 133.832 36.8838 133.832 35.2933C133.832 33.7028 132.824 32.6089 131.394 32.6089C129.93 32.6105 128.923 33.7028 128.923 35.2933Z" fill="#0367B4"/>
<path d="M146.657 34.1674V39.7006H144.528V34.7966C144.528 33.5533 143.797 32.7916 142.594 32.7916C141.163 32.8084 140.319 33.8855 140.319 35.3435V39.7006H138.205V30.8371H140.319V32.493C140.936 31.3169 142.026 30.77 143.44 30.7532C145.437 30.7549 146.657 32.0635 146.657 34.1674Z" fill="#0367B4"/>
<path d="M151.63 28.3037C151.63 29 151.16 29.4966 150.493 29.4966C149.826 29.4966 149.355 29 149.355 28.3037C149.355 27.6075 149.826 27.1108 150.493 27.1108C151.16 27.1092 151.63 27.6075 151.63 28.3037ZM151.55 30.8371V39.7007H149.436V30.8371H151.55Z" fill="#0367B4"/>
<path d="M157.174 32.4275C156.49 32.4275 156.003 32.659 156.003 33.206C156.003 34.6975 160.605 33.919 160.605 37.0984C160.605 38.9036 159.027 39.7828 157.175 39.7828C155.858 39.7828 154.493 39.3516 153.583 38.5396L154.314 37.0313C155.111 37.7275 156.314 38.1252 157.256 38.1252C157.987 38.1252 158.54 37.8769 158.54 37.2964C158.54 35.6555 154.004 36.5514 154.021 33.404C154.021 31.5819 155.549 30.7363 157.305 30.7363C158.443 30.7363 159.63 31.0836 160.491 31.6809L159.727 33.2379C158.881 32.7261 157.921 32.4275 157.174 32.4275Z" fill="#0367B4"/>
<path d="M165.009 28.3037C165.009 29 164.538 29.4966 163.871 29.4966C163.204 29.4966 162.733 29 162.733 28.3037C162.733 27.6075 163.204 27.1108 163.871 27.1108C164.538 27.1092 165.009 27.6075 165.009 28.3037ZM164.928 30.8371V39.7007H162.814V30.8371H164.928Z" fill="#0367B4"/>
<path d="M176.403 34.1674V39.7006H174.273V34.7966C174.273 33.5533 173.542 32.7916 172.338 32.7916C170.908 32.8084 170.063 33.8855 170.063 35.3435V39.7006H167.949V30.8371H170.063V32.493C170.68 31.3169 171.77 30.77 173.184 30.7532C175.185 30.7549 176.403 32.0635 176.403 34.1674Z" fill="#0367B4"/>
<path d="M187.132 30.837V38.855C187.132 41.3901 185.328 42.9974 182.58 42.9974C181.182 42.9974 179.931 42.5327 178.905 41.8213L179.752 40.2643C180.548 40.8599 181.426 41.1921 182.466 41.1921C184.027 41.1921 185.018 40.3147 185.018 38.9054V37.8618C184.434 38.756 183.49 39.2527 182.254 39.2527C179.946 39.2527 178.385 37.5296 178.385 34.9777C178.385 32.4762 179.929 30.7699 182.19 30.7699C183.441 30.7532 184.417 31.2665 185.018 32.1608V30.8354H187.132V30.837ZM185.018 35.0281C185.018 33.5365 184.075 32.493 182.71 32.493C181.344 32.493 180.402 33.5533 180.385 35.0281C180.402 36.5196 181.329 37.5632 182.71 37.5632C184.075 37.5632 185.018 36.5196 185.018 35.0281Z" fill="#0367B4"/>
<path d="M66.0164 46.3044V48.2422H59.8558V51.1078H65.3825V53.0456H59.8558V55.9616H66.2123V57.8994H57.6777V46.3027H66.0164V46.3044Z" fill="#0367B4"/>
<path d="M77.1357 45.6099V57.9028H75.0218V56.4784C74.4044 57.4565 73.3952 58.0018 72.0963 58.0018C69.6087 58.0018 67.9508 56.1462 67.9508 53.4467C67.9508 50.7623 69.6087 48.957 72.0469 48.957C73.3804 48.957 74.388 49.5039 75.0218 50.4972V45.6099H77.1357ZM75.0218 53.4953C75.0218 51.9048 74.0142 50.7958 72.5507 50.7958C71.1035 50.7958 70.096 51.9216 70.0795 53.4953C70.096 55.0858 71.0871 56.1948 72.5507 56.1948C74.0142 56.1948 75.0218 55.0858 75.0218 53.4953Z" fill="#0367B4"/>
<path d="M88.2862 49.0391V57.9026H86.1558V56.2618C85.5549 57.4379 84.5144 57.9848 83.1331 57.9848C81.1822 57.9848 79.9788 56.6762 79.9788 54.5891V49.0391H82.1075V53.9599C82.1075 55.2031 82.8072 55.9481 83.9777 55.9481C85.3425 55.9313 86.1558 54.8374 86.1558 53.413V49.0391H88.2862Z" fill="#0367B4"/>
<path d="M95.0312 50.8611C93.6335 50.8611 92.6572 51.9214 92.6572 53.4784C92.6572 55.0689 93.6335 56.1292 95.0312 56.1292C96.0388 56.1292 96.8521 55.7819 97.3723 55.0857L98.6894 56.1963C97.9255 57.3221 96.6249 57.9848 94.9176 57.9848C92.3164 57.9848 90.5285 56.1628 90.5285 53.4951C90.5285 50.7956 92.3329 48.9719 94.9506 48.9719C96.5442 48.9719 97.8119 49.5692 98.5922 50.596L97.3081 51.8392C96.7549 51.2251 95.991 50.8611 95.0312 50.8611Z" fill="#0367B4"/>
<path d="M105.727 57.9011V56.824C105.127 57.6024 104.15 58.0001 102.916 58.0001C101.047 58.0001 99.8764 56.824 99.8764 55.2502C99.8764 53.6094 101.063 52.5994 103.176 52.5826H105.711V52.3511C105.711 51.3243 105.044 50.7102 103.744 50.7102C102.93 50.7102 102.053 50.9921 101.159 51.539L100.395 50.0475C101.646 49.3345 102.622 48.9536 104.216 48.9536C106.491 48.9536 107.776 50.1297 107.792 52.1011L107.808 57.8994H105.727V57.9011ZM105.711 54.8207V54.0255H103.516C102.395 54.0255 101.875 54.3409 101.875 55.1194C101.875 55.8643 102.46 56.3458 103.419 56.3458C104.638 56.3441 105.597 55.6814 105.711 54.8207Z" fill="#0367B4"/>
<path d="M115.676 57.3542C115.01 57.7686 114.262 58.0002 113.498 58.0002C112.084 58.0002 110.946 57.1714 110.946 55.3493V50.9754H109.726L109.71 49.4017H110.945V46.9656H113.042V49.4017H115.53V50.9754H113.042V54.9685C113.042 55.8141 113.385 56.0942 113.953 56.0942C114.31 56.0942 114.716 55.9617 115.187 55.7302L115.676 57.3542Z" fill="#0367B4"/>
<path d="M119.934 46.5042C119.934 47.2004 119.463 47.697 118.796 47.697C118.129 47.697 117.659 47.2004 117.659 46.5042C117.659 45.8079 118.129 45.3113 118.796 45.3113C119.463 45.3113 119.934 45.8079 119.934 46.5042ZM119.853 49.0392V57.9028H117.739V49.0392H119.853Z" fill="#0367B4"/>
<path d="M131.247 53.4616C131.247 56.1611 129.394 57.9848 126.679 57.9848C123.931 57.9848 122.079 56.1628 122.079 53.4616C122.079 50.7772 123.931 48.9719 126.679 48.9719C129.395 48.9719 131.247 50.7772 131.247 53.4616ZM124.209 53.4951C124.209 55.0857 125.217 56.1796 126.68 56.1796C128.111 56.1796 129.119 55.0857 129.119 53.4951C129.119 51.9046 128.111 50.8107 126.68 50.8107C125.217 50.8107 124.209 51.9046 124.209 53.4951Z" fill="#0367B4"/>
<path d="M141.943 52.3678V57.9011H139.815V52.997C139.815 51.7538 139.084 50.9921 137.88 50.9921C136.45 51.0089 135.605 52.086 135.605 53.544V57.9011H133.491V49.0375H135.605V50.6934C136.222 49.5173 137.312 48.9704 138.727 48.9536C140.725 48.9553 141.943 50.2639 141.943 52.3678Z" fill="#0367B4"/>
<path d="M66.5118 12.4483C66.5118 15.0505 64.7255 16.8071 62.1095 16.8071C59.4622 16.8071 57.6759 15.0505 57.6759 12.4483C57.6759 9.86285 59.4622 8.12134 62.1095 8.12134C64.7255 8.12302 66.5118 9.86285 66.5118 12.4483ZM59.7289 12.4801C59.7289 14.0136 60.7002 15.0656 62.1095 15.0656C63.4875 15.0656 64.4588 14.0119 64.4588 12.4801C64.4588 10.9484 63.4875 9.89472 62.1095 9.89472C60.7002 9.89472 59.7289 10.9484 59.7289 12.4801Z" fill="#0367B4"/>
<path d="M76.8179 11.3919V16.7238H74.7665V11.9993C74.7665 10.8013 74.0619 10.0682 72.9029 10.0682C71.5249 10.0833 70.71 11.1218 70.71 12.5261V16.7238H68.6735V8.18405H70.71V9.77959C71.3059 8.64543 72.3547 8.11862 73.7178 8.10352C75.644 8.10352 76.8179 9.36519 76.8179 11.3919Z" fill="#0367B4"/>
<path d="M82.389 24.908H52.1047V0H82.389V24.908ZM53.7313 23.252H80.7641V1.65594H53.7313V23.252Z" fill="#0367B4"/>
<path d="M30.765 32.6809C30.765 33.4258 31.3511 33.9073 32.3093 33.9073C33.5292 33.9073 34.4874 33.2446 34.601 32.3839V31.5886H32.4064C31.2853 31.587 30.765 31.9024 30.765 32.6809Z" fill="#0367B4"/>
<path d="M9.81219 31.1073H13.8111L11.8273 26.2368L9.81219 31.1073Z" fill="#0367B4"/>
<path d="M43.282 33.7564C44.6468 33.7564 45.7532 32.5478 45.7532 31.0569C45.7532 29.566 44.6468 28.3574 43.282 28.3574C41.9173 28.3574 40.8109 29.566 40.8109 31.0569C40.8109 32.5478 41.9173 33.7564 43.282 33.7564Z" fill="#0367B4"/>
<path d="M0 16.6702V42.063H53.6293V16.6702H0ZM15.599 35.4627L14.5914 33.0115H9.03178L8.02423 35.4627H5.76381L10.7538 23.8661H13.0143L17.9401 35.4627H15.599ZM25.5313 35.4627L23.1738 31.5871L21.8403 33.0115V35.4627H19.7264V23.1698H21.8403V30.2935L25.4161 26.6159H27.8543L24.6357 30.0285L28.0502 35.4627H25.5313ZM34.6174 35.4627V34.3856C34.0165 35.1641 33.0403 35.5617 31.8055 35.5617C29.9353 35.5617 28.7664 34.3856 28.7664 32.8118C28.7664 31.171 29.9534 30.161 32.0656 30.1442H34.601V29.9127C34.601 28.8859 33.9342 28.2718 32.6336 28.2718C31.8203 28.2718 30.9428 28.5537 30.0489 29.1007L29.285 27.6091C30.5362 26.8961 31.5125 26.5152 33.1045 26.5152C35.3797 26.5152 36.6638 27.6913 36.6803 29.6627L36.6968 35.461H34.6174V35.4627ZM47.8655 35.4627H45.7516V34.0383C45.1342 35.0164 44.1267 35.5617 42.8261 35.5617C40.3384 35.5617 38.6806 33.7061 38.6806 31.0066C38.6806 28.3222 40.3384 26.5169 42.7767 26.5169C44.1102 26.5169 45.1178 27.0639 45.7516 28.0571V23.1698H47.8655V35.4627Z" fill="#0367B4"/>
</g>
<defs>
<clipPath id="clip0_937_2240">
<rect width="187.132" height="58" fill="white"/>
</clipPath>
</defs>
</svg>
