<svg width="56" height="56" viewBox="0 0 56 56" fill="none" xmlns="http://www.w3.org/2000/svg">
<circle opacity="0.1" cx="28" cy="28" r="28" fill="#FF6D34"/>
<path d="M33.7422 30.5156C30.5763 30.5156 28 33.0919 28 36.2578C28 39.3659 30.5121 42 33.7422 42C36.9081 42 39.4844 39.4237 39.4844 36.2578C39.4844 33.0919 36.9081 30.5156 33.7422 30.5156ZM35.9628 35.6073L33.5018 38.0682C33.1814 38.3887 32.6623 38.3887 32.3419 38.0682L31.1114 36.8378C30.791 36.5174 30.791 35.9982 31.1114 35.6778C31.4318 35.3574 31.951 35.3574 32.2714 35.6778L32.9219 36.3283L34.8029 34.4473C35.1233 34.1269 35.6424 34.1269 35.9628 34.4473C36.2832 34.7677 36.2832 35.2869 35.9628 35.6073Z" fill="#FF6D34"/>
<path d="M33.7422 14H17.3359C16.8825 14 16.5156 14.3669 16.5156 14.8203V37.8984C16.5156 38.3519 16.8825 38.7188 17.3359 38.7188H26.7979C26.7949 38.7102 26.7901 38.7025 26.7871 38.6939C26.5116 37.9889 26.3594 37.147 26.3594 36.2578C26.3594 32.1867 29.6711 28.875 33.7422 28.875C34.0231 28.875 34.2896 28.9272 34.5625 28.9579V14.8203C34.5625 14.3669 34.1956 14 33.7422 14ZM20.6172 30.5156C20.1642 30.5156 19.7969 30.1483 19.7969 29.6953C19.7969 29.2422 20.1642 28.875 20.6172 28.875C21.0702 28.875 21.4375 29.2422 21.4375 29.6953C21.4375 30.1483 21.0702 30.5156 20.6172 30.5156ZM20.6172 27.2344C20.1642 27.2344 19.7969 26.8671 19.7969 26.4141C19.7969 25.9609 20.1642 25.5938 20.6172 25.5938C21.0702 25.5938 21.4375 25.9609 21.4375 26.4141C21.4375 26.8671 21.0702 27.2344 20.6172 27.2344ZM20.6172 23.9531C20.1642 23.9531 19.7969 23.5858 19.7969 23.1328C19.7969 22.6797 20.1642 22.3125 20.6172 22.3125C21.0702 22.3125 21.4375 22.6797 21.4375 23.1328C21.4375 23.5858 21.0702 23.9531 20.6172 23.9531ZM20.6172 20.6719C20.1642 20.6719 19.7969 20.3046 19.7969 19.8516C19.7969 19.3984 20.1642 19.0312 20.6172 19.0312C21.0702 19.0312 21.4375 19.3984 21.4375 19.8516C21.4375 20.3046 21.0702 20.6719 20.6172 20.6719ZM27.1797 30.5156H23.8984C23.445 30.5156 23.0781 30.1487 23.0781 29.6953C23.0781 29.2419 23.445 28.875 23.8984 28.875H27.1797C27.6331 28.875 28 29.2419 28 29.6953C28 30.1487 27.6331 30.5156 27.1797 30.5156ZM30.4609 27.2344H23.8984C23.445 27.2344 23.0781 26.8675 23.0781 26.4141C23.0781 25.9606 23.445 25.5938 23.8984 25.5938H30.4609C30.9144 25.5938 31.2812 25.9606 31.2812 26.4141C31.2812 26.8675 30.9144 27.2344 30.4609 27.2344ZM30.4609 23.9531H23.8984C23.445 23.9531 23.0781 23.5862 23.0781 23.1328C23.0781 22.6794 23.445 22.3125 23.8984 22.3125H30.4609C30.9144 22.3125 31.2812 22.6794 31.2812 23.1328C31.2812 23.5862 30.9144 23.9531 30.4609 23.9531ZM30.4609 20.6719H23.8984C23.445 20.6719 23.0781 20.305 23.0781 19.8516C23.0781 19.3981 23.445 19.0312 23.8984 19.0312H30.4609C30.9144 19.0312 31.2812 19.3981 31.2812 19.8516C31.2812 20.305 30.9144 20.6719 30.4609 20.6719Z" fill="#FF6D34"/>
</svg>
