<svg width="57" height="56" viewBox="0 0 57 56" fill="none" xmlns="http://www.w3.org/2000/svg">
<ellipse opacity="0.1" cx="28.6302" cy="28" rx="27.7647" ry="28" fill="#0367B4"/>
<g clip-path="url(#clip0_34_3414)">
<path d="M17.8473 39.7516C17.5241 39.8536 17.1716 39.7797 16.9155 39.5562C16.6595 39.3326 16.5364 38.9914 16.5901 38.6542L18.1182 29.3901H17.7407C17.5076 29.3903 17.3073 29.5569 17.2628 29.7875L15.2063 40.4339C15.179 40.5769 15.2165 40.7246 15.3086 40.8367C15.4018 40.9513 15.5411 41.0176 15.688 41.0175H25.7476L25.8937 39.2368C23.2112 38.726 20.4444 38.903 17.8473 39.7516Z" fill="#0367B4"/>
<path d="M22.7967 22.6908C22.6058 22.4281 22.3019 22.2732 21.9789 22.2742C21.5179 22.2768 21.1148 22.5883 20.9924 23.0366C20.87 23.4849 21.0581 23.9605 21.4528 24.2008C21.6042 24.2902 21.6962 24.4549 21.6937 24.6318C21.6911 24.8087 21.5944 24.9706 21.4405 25.0556C21.2866 25.1405 21.0993 25.1354 20.9501 25.0423C20.8184 24.9599 20.6967 24.8622 20.5877 24.751C20.1447 25.7831 20.3128 26.9786 21.0229 27.8458C21.733 28.7131 22.8653 29.1056 23.9541 28.8621C23.9263 28.6998 23.9115 28.5355 23.9098 28.3708C23.0508 28.2762 22.3999 27.5451 22.3988 26.6736C22.3982 26.4012 22.6157 26.1792 22.8859 26.1765C23.0144 26.1751 23.1382 26.2255 23.2296 26.3166C23.3211 26.4076 23.3727 26.5317 23.373 26.6614V26.6736C23.3792 27.0617 23.6828 27.3784 24.0671 27.3977C24.136 27.1771 24.2295 26.965 24.3457 26.7655C24.4331 26.6107 24.5967 26.5158 24.7734 26.5174C24.95 26.519 25.1119 26.6169 25.1965 26.7732C25.2812 26.9295 25.2753 27.1198 25.1811 27.2705C24.6203 28.206 24.8639 29.4187 25.7415 30.0603C26.619 30.702 27.8377 30.5584 28.545 29.7301C28.6798 29.5723 28.8986 29.5173 29.0911 29.593C29.6035 29.7979 30.1557 29.882 30.7053 29.8386C30.9906 29.8197 31.2727 29.7675 31.546 29.6829C31.7124 29.6313 31.8934 29.6731 32.0209 29.7926C32.1484 29.9121 32.203 30.0912 32.1641 30.2623C32.1253 30.4334 31.9988 30.5705 31.8325 30.6221C31.5882 30.695 31.3385 30.7475 31.0857 30.7793C31.2582 31.1232 31.6644 31.443 32.717 31.7986C33.2716 31.9763 33.7655 32.3073 34.1428 32.7541C34.2932 32.943 34.5476 33.0119 34.7716 32.9245C34.9653 32.8413 35.091 32.6495 35.0912 32.4372C35.0911 32.3833 35.0826 32.3298 35.0658 32.2786C34.9743 31.9854 34.8525 31.7027 34.7025 31.4351C34.4248 31.5524 34.1349 31.6378 33.8383 31.6896C33.8127 31.6935 33.7868 31.6955 33.7609 31.6955C33.5074 31.6945 33.2971 31.4977 33.2771 31.2429C33.2571 30.9881 33.4343 30.7605 33.6844 30.7194C34.4885 30.5874 35.2089 30.1419 35.6903 29.4791C34.9419 29.7075 34.1346 29.6322 33.4404 29.2693C33.2351 29.1619 33.0435 29.0299 32.8695 28.8763C32.6751 28.9551 32.4677 28.9962 32.2582 28.9976C31.6146 28.9994 31.026 28.6321 30.7404 28.0506C30.62 27.8079 30.7175 27.5127 30.9581 27.3913C31.1987 27.2699 31.4914 27.3682 31.6118 27.6109C31.7086 27.7967 31.8791 27.9324 32.0808 27.9843C32.2825 28.0362 32.4965 27.9994 32.6698 27.8831C32.9648 27.6758 33.0647 27.2818 32.9046 26.9571C32.8263 26.8003 32.8368 26.6133 32.9323 26.4665C33.0279 26.3197 33.1938 26.2354 33.3676 26.2454C33.5414 26.2554 33.6967 26.3582 33.775 26.515C34.0556 27.0707 34.0064 27.7378 33.6474 28.2456C33.7225 28.3004 33.8015 28.3496 33.8836 28.3929C34.721 28.8138 35.7333 28.6264 36.3678 27.9332L36.3795 27.9209C36.8855 27.3506 37.0434 26.5477 36.7916 25.8258C36.6788 25.9152 36.5569 25.9921 36.4278 26.0552C36.3632 26.086 36.2927 26.102 36.2212 26.1019C35.9951 26.0996 35.8002 25.9407 35.7507 25.7181C35.7012 25.4956 35.8102 25.2679 36.0137 25.1685C36.2078 25.0765 36.369 24.9262 36.475 24.7382C36.7228 24.3123 36.6366 23.7691 36.2694 23.4425C35.9022 23.1158 35.3569 23.0975 34.9689 23.3986C34.7537 23.5614 34.4484 23.5174 34.287 23.3004C34.1255 23.0833 34.1692 22.7754 34.3844 22.6127C34.574 22.4699 34.7875 22.3625 35.0147 22.2958C34.6976 20.9233 33.5248 19.9235 32.1301 19.8367C32.1301 19.8746 32.1413 19.9104 32.1413 19.9482C32.1413 20.2195 31.9232 20.4395 31.6542 20.4395C31.3852 20.4395 31.1671 20.2195 31.1671 19.9482C31.1671 19.5791 30.9718 19.238 30.6548 19.0534C30.3378 18.8688 29.9472 18.8688 29.6302 19.0534C29.3131 19.238 29.1178 19.5791 29.1178 19.9482C29.1178 20.2195 28.8998 20.4395 28.6307 20.4395C28.3617 20.4395 28.1436 20.2195 28.1436 19.9482C28.1463 19.7282 28.1849 19.5101 28.2581 19.3028C27.8749 19.0484 27.4266 18.9118 26.9678 18.9098C26.1255 18.9129 25.3461 19.3601 24.9132 20.0887C24.8009 20.2808 24.7158 20.4879 24.6604 20.7038C24.5886 20.9609 24.3262 21.113 24.0697 21.0462C23.8133 20.9794 23.6567 20.7182 23.7174 20.4581C23.7463 20.354 23.7805 20.2513 23.8197 20.1506C23.761 20.1406 23.7018 20.134 23.6423 20.131C22.9429 20.1333 22.3405 20.6288 22.1976 21.3193C22.747 21.3742 23.2483 21.6594 23.579 22.1052C23.6828 22.2462 23.7042 22.4322 23.6351 22.5933C23.566 22.7545 23.4169 22.8662 23.2439 22.8864C23.071 22.9066 22.9005 22.8322 22.7967 22.6913V22.6908ZM30.2679 25.4706C30.6891 25.1782 30.979 24.7301 31.0745 24.2234C31.1045 24.0484 31.2258 23.9033 31.3919 23.8439C31.5579 23.7846 31.7427 23.8203 31.8753 23.9373C32.0078 24.0542 32.0675 24.2343 32.0312 24.4081C31.7974 25.6243 30.8383 26.5657 29.6264 26.7685C29.2701 27.7198 28.3654 28.3479 27.357 28.3438C27.088 28.3438 26.8699 28.1239 26.8699 27.8526C26.8699 27.5813 27.088 27.3614 27.357 27.3614C27.828 27.3621 28.27 27.1322 28.5426 26.7449C27.9409 26.6151 27.3948 26.2981 26.9814 25.8386C26.8005 25.6371 26.8158 25.3259 27.0155 25.1435C27.2153 24.961 27.5239 24.9764 27.7048 25.1779C28.3719 25.8969 29.4581 26.021 30.2679 25.4706ZM27.0715 21.8596C27.3406 21.8596 27.5586 22.0795 27.5586 22.3508C27.5586 22.6221 27.3406 22.8421 27.0715 22.8421C26.7356 22.8421 26.4135 22.9766 26.176 23.2162C25.9385 23.4557 25.8051 23.7805 25.8051 24.1193C25.8051 24.3906 25.587 24.6105 25.318 24.6105C25.049 24.6105 24.8309 24.3906 24.8309 24.1193C24.8322 22.8719 25.8346 21.861 27.0715 21.8596Z" fill="#0367B4"/>
<path d="M28.1432 38.8177V32.6666C28.1432 32.3953 28.3613 32.1754 28.6303 32.1754C28.8993 32.1754 29.1174 32.3953 29.1174 32.6666V38.8177C32.5546 37.6603 36.2717 37.6603 39.7089 38.8177L37.9505 28.1473C37.7863 28.1198 37.6231 28.1011 37.4599 28.08C37.3769 28.2192 37.2831 28.3516 37.1794 28.4759C36.9661 29.4819 36.389 30.3719 35.5607 30.9723C35.7375 31.29 35.8818 31.6249 35.9913 31.972C36.0408 32.1218 36.0658 32.2788 36.0654 32.4367C36.0665 33.0424 35.7093 33.5903 35.1574 33.8293C34.9746 33.9077 34.7779 33.9481 34.5792 33.9482C34.1249 33.9451 33.6948 33.7413 33.4024 33.3907C33.1394 33.0819 32.7958 32.8537 32.4107 32.7319C30.982 32.249 30.302 31.7038 30.0667 30.8038C29.7221 30.78 29.3812 30.7177 29.0502 30.6182C28.3548 31.2715 27.3973 31.5608 26.4603 31.4007C25.5233 31.2405 24.7138 30.6492 24.2708 29.8013C22.622 30.2096 20.8995 29.5049 19.9989 28.0535L19.6677 28.0982C19.4549 28.1262 19.2853 28.2914 19.2502 28.5049L17.5517 38.8138C20.9894 37.6578 24.7064 37.6592 28.1432 38.8177Z" fill="#0367B4"/>
<path d="M39.5194 29.3906H39.1429L40.6699 38.6527C40.7243 38.9893 40.6022 39.3304 40.3471 39.5543C40.092 39.7782 39.7402 39.8532 39.4171 39.7526C36.8197 38.9023 34.052 38.7238 31.3683 39.2333L31.5144 41.0175H41.5725C41.7195 41.0176 41.8587 40.9512 41.952 40.8367C42.044 40.7246 42.0815 40.5768 42.0543 40.4339L39.9973 29.788C39.9527 29.5573 39.7524 29.3908 39.5194 29.3906Z" fill="#0367B4"/>
<path d="M28.8412 39.9859C28.7755 40.0181 28.7034 40.0349 28.6303 40.035C28.5574 40.0346 28.4855 40.0178 28.4199 39.9859C27.9122 39.7672 27.388 39.5897 26.8524 39.4548L26.6848 41.4935C26.7837 41.6502 27.4569 41.9999 28.6303 41.9999C29.8037 41.9999 30.4769 41.6502 30.5758 41.4944L30.4082 39.4529C29.8727 39.5882 29.3487 39.7664 28.8412 39.9859Z" fill="#0367B4"/>
<path d="M28.6303 15.4737C28.8993 15.4737 29.1174 15.2538 29.1174 14.9825V14.4912C29.1174 14.2199 28.8993 14 28.6303 14C28.3613 14 28.1432 14.2199 28.1432 14.4912V14.9825C28.1432 15.2538 28.3613 15.4737 28.6303 15.4737Z" fill="#0367B4"/>
<path d="M36.4808 18.8547C36.61 18.8547 36.7339 18.8029 36.8252 18.7108L37.3123 18.2196C37.4389 18.0962 37.4897 17.9136 37.4452 17.7419C37.4006 17.5701 37.2676 17.436 37.0973 17.391C36.927 17.3461 36.7459 17.3973 36.6236 17.525L36.1365 18.0162C35.9972 18.1567 35.9555 18.3679 36.0309 18.5515C36.1063 18.735 36.2839 18.8547 36.4808 18.8547Z" fill="#0367B4"/>
<path d="M20.4353 18.7108C20.6264 18.897 20.9303 18.8943 21.1181 18.7048C21.306 18.5153 21.3087 18.209 21.1241 18.0162L20.637 17.525C20.5147 17.3973 20.3336 17.3461 20.1633 17.391C19.993 17.436 19.86 17.5701 19.8154 17.7419C19.7708 17.9136 19.8216 18.0962 19.9482 18.2196L20.4353 18.7108Z" fill="#0367B4"/>
<path d="M24.0793 16.4847C24.1547 16.6683 24.3324 16.7879 24.5294 16.7878C24.5934 16.7877 24.6567 16.775 24.7159 16.7505C24.8353 16.7006 24.9301 16.6049 24.9796 16.4845C25.029 16.3641 25.0289 16.2288 24.9794 16.1085L24.4198 14.7468C24.3556 14.5809 24.2076 14.463 24.0327 14.4386C23.8579 14.4142 23.6836 14.4871 23.5772 14.6291C23.4709 14.7712 23.449 14.9601 23.5201 15.1231L24.0793 16.4847Z" fill="#0367B4"/>
<path d="M32.5446 16.7509C32.6038 16.7754 32.6671 16.7881 32.7311 16.7882C32.9281 16.7882 33.1058 16.6686 33.1812 16.4851L33.7404 15.1234C33.8115 14.9605 33.7897 14.7715 33.6833 14.6295C33.5769 14.4874 33.4026 14.4146 33.2278 14.439C33.0529 14.4634 32.9049 14.5813 32.8407 14.7471L32.2811 16.1083C32.2314 16.2288 32.2313 16.3642 32.2807 16.4847C32.3301 16.6052 32.4251 16.701 32.5446 16.7509Z" fill="#0367B4"/>
<path d="M38.5306 22.6367C38.5946 22.6366 38.658 22.6238 38.7171 22.5989L40.0669 22.035C40.2277 21.9679 40.3407 21.8193 40.3635 21.6453C40.3862 21.4713 40.3152 21.2983 40.1772 21.1914C40.0391 21.0846 39.855 21.0601 39.6942 21.1272L38.344 21.6911C38.1285 21.7804 38.0059 22.011 38.0513 22.2414C38.0968 22.4718 38.2976 22.6375 38.5306 22.6367Z" fill="#0367B4"/>
<path d="M17.1936 22.035L18.5434 22.5989C18.792 22.7028 19.077 22.5838 19.18 22.3332C19.2831 22.0825 19.1651 21.795 18.9165 21.6911L17.5663 21.1272C17.3177 21.0234 17.0328 21.1425 16.9299 21.3932C16.827 21.6439 16.9451 21.9312 17.1936 22.035Z" fill="#0367B4"/>
</g>
<defs>
<clipPath id="clip0_34_3414">
<rect width="27.7647" height="28" fill="white" transform="translate(14.7479 14)"/>
</clipPath>
</defs>
</svg>
